HIERARCHY
ROOT Hips
{
	OFFSET -0.001795 -0.223333 0.028219
	CHANNELS 6 Xposition Yposition Zposition Zrotation Yrotation Xrotation 
	JOINT LeftUpLeg
	{
		OFFSET 0.069520 -0.091406 -0.006815
		CHANNELS 3 Zrotation Yrotation Xrotation
		JOINT LeftLeg
		{
			OFFSET 0.034277 -0.375199 -0.004496
			CHANNELS 3 Zrotation Yrotation Xrotation
			JOINT LeftFoot
			{
				OFFSET -0.013596 -0.397961 -0.043693
				CHANNELS 3 Zrotation Yrotation Xrotation
				JOINT LeftToe
				{
					OFFSET 0.026358 -0.055791 0.119288
					CHANNELS 3 Zrotation Yrotation Xrotation
					End Site
					{
						OFFSET 0.000000 0.000000 0.000000
					}
				}
			}
		}
	}
	JOINT RightUpLeg
	{
		OFFSET -0.067670 -0.090522 -0.004320
		CHANNELS 3 Zrotation Yrotation Xrotation
		JOINT RightLeg
		{
			OFFSET -0.038290 -0.382569 -0.008850
			CHANNELS 3 Zrotation Yrotation Xrotation
			JOINT RightFoot
			{
				OFFSET 0.015774 -0.398415 -0.042312
				CHANNELS 3 Zrotation Yrotation Xrotation
				JOINT RightToe
				{
					OFFSET -0.025372 -0.048144 0.123348
					CHANNELS 3 Zrotation Yrotation Xrotation
					End Site
					{
						OFFSET 0.000000 0.000000 0.000000
					}
				}
			}
		}
	}
	JOINT Spine
	{
		OFFSET -0.002533 0.108963 -0.026696
		CHANNELS 3 Zrotation Yrotation Xrotation
		JOINT Spine1
		{
			OFFSET 0.005487 0.135180 0.001092
			CHANNELS 3 Zrotation Yrotation Xrotation
			JOINT Spine2
			{
				OFFSET 0.001457 0.052922 0.025425
				CHANNELS 3 Zrotation Yrotation Xrotation
				JOINT Neck
				{
					OFFSET -0.002778 0.213870 -0.042857
					CHANNELS 3 Zrotation Yrotation Xrotation
					JOINT Head
					{
						OFFSET 0.005152 0.064970 0.051349
						CHANNELS 3 Zrotation Yrotation Xrotation
						End Site
						{
							OFFSET 0.000000 0.000000 0.000000
						}
					}
				}
				JOINT LeftShoulder
				{
					OFFSET 0.078845 0.121749 -0.034090
					CHANNELS 3 Zrotation Yrotation Xrotation
					JOINT LeftArm
					{
						OFFSET 0.090977 0.030469 -0.008868
						CHANNELS 3 Zrotation Yrotation Xrotation
						JOINT LeftForeArm
						{
							OFFSET 0.259612 -0.012772 -0.027456
							CHANNELS 3 Zrotation Yrotation Xrotation
							JOINT LeftHand
							{
								OFFSET 0.249234 0.008986 -0.001171
								CHANNELS 3 Zrotation Yrotation Xrotation
								End Site
								{
									OFFSET 0.000000 0.000000 0.000000
								}
							}
						}
					}
				}
				JOINT RightShoulder
				{
					OFFSET -0.081759 0.118833 -0.038615
					CHANNELS 3 Zrotation Yrotation Xrotation
					JOINT RightArm
					{
						OFFSET -0.096012 0.032551 -0.009143
						CHANNELS 3 Zrotation Yrotation Xrotation
						JOINT RightForeArm
						{
							OFFSET -0.253742 -0.013329 -0.021401
							CHANNELS 3 Zrotation Yrotation Xrotation
							JOINT RightHand
							{
								OFFSET -0.255298 0.007772 -0.005559
								CHANNELS 3 Zrotation Yrotation Xrotation
								End Site
								{
									OFFSET 0.000000 0.000000 0.000000
								}
							}
						}
					}
				}
			}
		}
	}
}
MOTION
Frames: 8
Frame Time: 0.050000
0.000000 0.967421 0.000000 1.984076 2.717371 7.923985 4.823545 -0.382202 -4.252545 -3.041474 0.332331 -3.566852 3.385861 11.356237 16.846719 0.000000 0.000000 0.000000 -5.164213 0.693656 -9.590436 1.647977 -0.150639 1.244046 -0.153123 -4.648184 11.319294 0.000000 0.000000 0.000000 6.644242 -1.964391 16.685985 -2.858795 1.339079 -17.925539 -3.000280 0.700979 26.943957 11.518806 -4.045950 -29.954835 0.000000 0.000000 0.000000 -17.843551 -30.116701 14.619448 -59.718701 -38.603415 11.491165 12.321504 -10.568829 -0.577061 0.000000 0.000000 0.000000 19.596129 17.907331 9.581842 54.637732 41.922373 12.488918 -17.035747 8.998226 -0.405027 0.000000 0.000000 0.000000 
-0.002696 0.966579 0.001597 1.942949 2.457395 8.809487 5.114322 -0.404347 -4.524201 -2.147314 0.294743 -5.218513 2.582489 10.589218 18.954650 0.000000 0.000000 0.000000 -5.731808 0.748357 -11.036176 3.287706 -0.343310 1.512392 -0.509426 -5.441880 11.550228 0.000000 0.000000 0.000000 6.693683 -1.896209 15.823070 -1.890382 1.054287 -17.913924 -3.995453 1.329966 27.328750 13.740687 -4.999972 -30.913122 0.000000 0.000000 0.000000 -19.787465 -30.557583 15.231329 -58.178019 -38.176207 10.767837 11.973029 -9.590567 -0.493956 0.000000 0.000000 0.000000 21.174001 17.338205 9.653356 55.679186 43.212174 13.525556 -18.720196 7.491690 -0.231621 0.000000 0.000000 0.000000 
-0.005335 0.966846 0.002963 1.841236 2.781607 8.204895 5.402798 -0.380743 -4.108897 -2.650766 0.313168 -4.410798 2.324977 10.159485 18.395756 0.000000 0.000000 0.000000 -5.205212 0.691979 -9.515565 2.529117 -0.270284 0.384134 -0.107819 -4.963469 12.703396 0.000000 0.000000 0.000000 7.166032 -2.039268 16.378774 -3.043955 1.390905 -17.597754 -3.808336 0.507574 26.422842 13.377731 -5.288533 -28.761837 0.000000 0.000000 0.000000 -18.880911 -29.508506 14.589636 -58.716889 -38.869257 11.372510 11.828359 -6.526144 -0.281733 0.000000 0.000000 0.000000 21.591743 16.930546 9.257616 54.543570 42.630111 12.851329 -15.690300 5.811106 -0.037522 0.000000 0.000000 0.000000 
-0.007946 0.966733 0.003933 1.912874 3.119521 8.195556 5.201826 -0.369432 -3.811516 -1.796142 0.263204 -4.655624 1.753344 9.286583 17.883910 0.000000 0.000000 0.000000 -5.348886 0.677735 -9.490479 2.881740 -0.315581 0.149679 -0.224024 -5.158918 12.787740 0.000000 0.000000 0.000000 7.707285 -2.069613 15.724905 -4.034939 1.691758 -16.886222 -3.940702 0.236322 26.724274 13.901925 -5.457506 -29.478925 0.000000 0.000000 0.000000 -19.100541 -30.873005 15.409563 -59.100938 -38.202253 11.118230 12.927054 -7.001420 -0.360722 0.000000 0.000000 0.000000 22.259594 16.585001 9.115228 54.244589 43.098438 12.948661 -15.537958 4.898232 0.059059 0.000000 0.000000 0.000000 
-0.010576 0.967249 0.004422 1.990274 3.406097 7.883062 5.325028 -0.360620 -3.622963 -1.897609 0.264330 -4.427305 1.570708 9.045463 17.792575 0.000000 0.000000 0.000000 -5.031257 0.652136 -8.827682 2.670381 -0.297179 -0.068953 -0.325522 -5.372477 13.001946 0.000000 0.000000 0.000000 7.489703 -2.083133 16.167921 -3.943571 1.671171 -17.091957 -4.009221 -0.226048 26.746335 12.847509 -4.939346 -29.372718 0.000000 0.000000 0.000000 -19.714155 -30.507128 15.430357 -58.184783 -37.953460 10.703300 12.186729 -6.836679 -0.317547 0.000000 0.000000 0.000000 21.768286 16.783560 9.067948 54.166454 43.221470 12.996759 -14.408887 3.530103 0.176642 0.000000 0.000000 0.000000 
-0.012982 0.967537 0.004258 2.069950 3.651990 8.014498 5.359164 -0.380628 -3.968208 -1.758187 0.249002 -4.084255 1.374195 8.736098 17.530891 0.000000 0.000000 0.000000 -5.000963 0.661086 -9.017655 2.866267 -0.319901 -0.024762 -0.444592 -5.559546 12.997905 0.000000 0.000000 0.000000 7.417137 -2.089405 16.253844 -4.205252 1.746609 -17.505495 -3.879578 -0.504635 26.976893 12.551712 -4.729323 -29.812059 0.000000 0.000000 0.000000 -19.924896 -30.506515 15.530005 -57.991890 -37.778706 10.525958 12.446747 -7.374285 -0.364466 0.000000 0.000000 0.000000 21.642679 16.581116 8.887880 54.273237 42.844286 12.810314 -14.284401 3.948781 0.137193 0.000000 0.000000 0.000000 
-0.015048 0.967535 0.003597 2.144268 3.714417 7.976344 5.667811 -0.387261 -4.075547 -2.018566 0.264345 -4.042586 1.485787 9.025031 18.032739 0.000000 0.000000 0.000000 -4.928411 0.663166 -9.024923 2.918400 -0.327739 -0.146443 -0.453918 -5.594073 13.094059 0.000000 0.000000 0.000000 7.179693 -2.063321 16.405403 -4.085736 1.711398 -17.737506 -4.004980 -0.555842 27.029899 12.474488 -4.621761 -30.157896 0.000000 0.000000 0.000000 -20.424030 -29.979312 15.361201 -57.696385 -37.260411 10.128534 12.603058 -7.915557 -0.406755 0.000000 0.000000 0.000000 21.796153 16.567110 8.907593 54.464600 42.716551 12.795583 -14.534710 4.586118 0.080854 0.000000 0.000000 0.000000 
-0.016715 0.967380 0.002745 2.114368 3.665349 7.840536 5.790212 -0.389331 -4.159517 -2.087513 0.264705 -3.739950 1.577876 8.988621 17.368469 0.000000 0.000000 0.000000 -4.669934 0.682066 -9.159498 2.990595 -0.334938 -0.098190 -0.476052 -5.554852 12.753944 0.000000 0.000000 0.000000 7.088781 -2.051584 16.489452 -4.270618 1.765416 -17.650100 -3.844870 -0.514988 27.026288 12.595411 -4.668979 -30.262192 0.000000 0.000000 0.000000 -20.175628 -29.511708 15.023586 -57.589470 -36.151968 9.456989 12.590978 -10.014151 -0.552835 0.000000 0.000000 0.000000 21.855456 16.086250 8.631891 54.635459 42.065447 12.496270 -15.422506 6.383315 -0.091988 0.000000 0.000000 0.000000 
